# xmcd
#
# Track frame offsets:
# 150
# 23980
# 32347
# 48512
# 67415
# 82540
# 95755
# 108725
# 123115
# 132510
# 143625
# 155780
# 168560
# 182487
# 187425
# 201885
# 211080
# 221470
# 231585
# 239250
#
# Disc length: 3405 seconds
#
#
# Revision: 0
# Processed by: cddbd v1.5.2PL0 Copyright (c) Steve Scherf et al.
# Submitted via: FreeRIP 2.96 
#
DISCID=2a0d4b14
DTITLE=Various Artist - Truckers Country
DYEAR=1900
DGENRE=Country
TTITLE0=Freddie Fender-Six days on the road
TTITLE1=Willie Nelson-I let my mind wonder
TTITLE2=Lynn Anderson-The devil went down to Georgia
TTITLE3=Alabama-Iwant to be with you tonight
TTITLE4=Nitty Gritty Dirt Band-Home again in my heart
TTITLE5=Bobby Bare-500 miles away from home
TTITLE6=Kenny Rogers-Ruby don´t take your love to town
TTITLE7=Trucks-Duelling banjo´s
TTITLE8=Jim Reeves-Dear hearts and gentle people
TTITLE9=Patsy Cline-Just out of reach
TTITLE10=Trucker Hobo and The Wheels-Truck stop honky tonk lady
TTITLE11=Charlie Rich-Behind closed doors
TTITLE12=Rockin´ Sidney-My toot toot
TTITLE13=Tammy Wynette-You´re a good girl
TTITLE14=George Hug-Cajun accordeon man
TTITLE15=Rockin´ Sidney-Jalapeno Lady
TTITLE16=Waylon Jennings-White lightning
TTITLE17=Trucks-On the road again
TTITLE18=Buck Owens-Down on the corner of love
TTITLE19=Johnny Rodriguez-North of the border
EXTD=
EXTT0=
EXTT1=
EXTT2=
EXTT3=
EXTT4=
EXTT5=
EXTT6=
EXTT7=
EXTT8=
EXTT9=
EXTT10=
EXTT11=
EXTT12=
EXTT13=
EXTT14=
EXTT15=
EXTT16=
EXTT17=
EXTT18=
EXTT19=
PLAYORDER=
